<?xml version="1.0" encoding="UTF-8"?>
<svg width="203px" height="88px" viewBox="0 0 203 88" version="1.1" xmlns="http://www.w3.org/2000/svg" xmlns:xlink="http://www.w3.org/1999/xlink">
    <!-- Generator: Sketch 46.2 (44496) - http://www.bohemiancoding.com/sketch -->
    <title>fela-logo</title>
    <desc>Created with Sketch.</desc>
    <defs></defs>
    <g id="Page-1" stroke="none" stroke-width="1" fill="none" fill-rule="evenodd">
        <g id="fela-logo">
            <g id="Symbol">
                <polygon id="Blue-Polygon" fill="#4D26E7" points="30.9185906 41 50.8371813 52.5 50.8371813 75.5 30.9185906 87 11 75.5 11 52.5"></polygon>
                <polygon id="Inner-Cyan-Polygon" fill="#73DCFF" points="30.9611939 55.5 38.3224121 59.75 38.3224121 68.25 30.9611939 72.5 23.5999756 68.25 23.5999756 59.75"></polygon>
                <polygon id="Cyan-Polygon" fill="#73DCFF" points="52.5 15.8000031 67 24.1715793 67 40.9147317 52.5 49.286308 38 40.9147317 38 24.1715793"></polygon>
                <polygon id="Pink-Polygon" fill="#FD54B0" points="31.1698716 0.800003052 41.3397432 6.67157928 41.3397432 18.4147317 31.1698716 24.286308 21 18.4147317 21 6.67157928"></polygon>
                <polygon id="Yellow-Polygon" fill="#FBDE5E" points="11.755425 7.80000305 17.9108744 11.3538523 17.9108744 18.4615508 11.755425 22.0154 5.59997559 18.4615508 5.59997559 11.3538523"></polygon>
                <polygon id="Blue-Polygon" fill="#4D26E7" points="4 21.1399994 8 23.3720496 8 27.8361502 4 30.0682004 2.33146835e-15 27.8361502 -2.22044605e-16 23.3720496"></polygon>
            </g>
            <path d="M98.6004166,71.0807799 L98.6004166,40.8231198 L93,40.8231198 L93,34.235376 L98.6004166,34.235376 L98.6004166,30.3286908 C98.6004166,26.2943159 99.7482382,23.1153784 102.043916,20.7917827 C104.339594,18.4681871 107.505563,17.3064067 111.54192,17.3064067 C112.651918,17.3064067 113.87542,17.4979089 115.212463,17.8809192 C116.549506,18.2639295 117.571194,18.7363017 118.277556,19.2980501 L115.931436,25.7325905 C114.316893,25.1197741 113.05555,24.8133705 112.14737,24.8133705 C110.431919,24.8133705 109.170576,25.4006441 108.363305,26.5752089 C107.556034,27.7497737 107.152404,29.3583928 107.152404,31.4011142 L107.152404,34.235376 L113.963722,34.235376 L116.688249,40.8231198 L107.152404,40.8231198 L107.152404,71.0807799 L98.6004166,71.0807799 Z M148.228433,38.3718663 C151.003428,41.9976969 152.390904,46.6192848 152.390904,52.2367688 L152.390904,54.764624 L126.961986,54.764624 C127.718803,61.4034687 131.628964,64.7228412 138.692588,64.7228412 C140.660312,64.7228412 142.413578,64.4547381 143.952439,63.9185237 C145.4913,63.3823093 147.345473,62.5524662 149.515015,61.4289694 L152.088179,67.7103064 C148.001368,70.5701164 143.485762,72 138.541225,72 C131.881237,72 126.798027,70.250946 123.291442,66.7527855 C119.784858,63.254625 118.031592,58.4926021 118.031592,52.4665738 C118.031592,48.5854031 118.750557,45.1766628 120.188509,42.2402507 C121.626461,39.3038386 123.695063,37.0185783 126.394376,35.3844011 C129.093689,33.750224 132.284886,32.9331476 135.968061,32.9331476 C141.366688,32.9331476 145.453437,34.7460357 148.228433,38.3718663 Z M129.875716,42.5849582 C128.38731,44.1169993 127.46653,46.2618247 127.113348,49.0194986 L144.217323,49.0194986 C143.763233,46.1596886 142.82984,43.9893296 141.417115,42.5083565 C140.00439,41.0273835 138.112377,40.2869081 135.741017,40.2869081 C133.319203,40.2869081 131.364122,41.0529171 129.875716,42.5849582 Z M157.215588,17.8426184 L157.215588,71.0807799 L165.691894,71.0807799 L165.691894,17 L157.215588,17.8426184 Z M186.788058,40.7465181 C183.458064,40.7465181 179.926305,41.5891281 176.192675,43.2743733 L173.846554,36.2270195 C175.15837,35.3588629 177.189132,34.5928538 179.938899,33.9289694 C182.688667,33.2650849 184.921244,32.9331476 186.636695,32.9331476 C189.462145,32.9331476 192.047897,33.5204212 194.394029,34.6949861 C196.740161,35.8695509 198.594334,37.4654031 199.956605,39.4825905 C201.318875,41.499778 202,43.7595047 202,46.2618384 L202,71.0807799 L196.323902,71.0807799 L195.03732,67.3272981 C193.624595,68.706135 192.010077,69.829615 190.193716,70.6977716 C188.377356,71.5659282 186.561023,72 184.744662,72 C180.506488,72 177.290065,70.9275873 175.095296,68.7827298 C172.900527,66.6378723 171.803159,63.7781052 171.803159,60.2033426 C171.803159,56.475376 173.051888,53.5900752 175.549384,51.5473538 C178.046879,49.5046323 181.338983,48.4832869 185.425794,48.4832869 L193.448012,48.4832869 C193.347104,43.3254153 191.127141,40.7465181 186.788058,40.7465181 Z M180.847075,55.9519499 C179.762304,57.1009807 179.219927,58.5180974 179.219927,60.2033426 C179.219927,61.5311116 179.699237,62.692892 180.657872,63.6887187 C181.616507,64.6845454 182.928303,65.1824513 184.5933,65.1824513 C186.157388,65.1824513 187.721453,64.7994467 189.285541,64.0334262 C190.849629,63.2674056 192.262332,62.2205266 193.523694,60.8927577 L193.523694,54.2284123 L185.274432,54.2284123 C183.407617,54.2284123 181.931846,54.802919 180.847075,55.9519499 Z" id="Fela" fill="#242424"></path>
        </g>
    </g>
</svg>