<svg xmlns="http://www.w3.org/2000/svg" version="1.1" height="24" viewBox="0 0 2000 665.6"><path d="M98.5,338.4C98.5,191.6,213.7,80,356.9,80c71.6,0,131,27.9,175.4,72.3c5,5,4.3,10,0,15L482.1,221
c-4.3,5-10,5-15,0.7c-30.1-25.1-65.8-41.5-110.2-41.5c-88,0-154.6,67.3-154.6,158.2s66.6,157.5,154.6,157.5
c44.4,0,80.2-16.5,110.2-41.5c5-4.3,10.7-4.3,15,0.7l50.1,53.7c4.3,4.3,5,9.3,0,14.3c-44.4,45.1-103.8,73-175.4,73
C213.7,596,98.5,485.1,98.5,338.4z"></path><path d="M919.7,246.8V576c0,6.4-5,10.7-11.4,10.7h-69.4c-6.4,0-10.7-4.3-10.7-10.7l-1.4-38.6
c-24.3,35.8-61.6,58-114.5,58c-98.8,0-166.8-79.4-166.8-183.9c0-103.8,68-183.9,166.8-183.9c53,0,90.9,22.2,114.5,58l1.4-38.6
c0-6.4,4.3-10.7,10.7-10.7H909C915.4,236,919.7,240.3,919.7,246.8z M821.7,411.4c0-56.5-36.5-93.8-88.7-93.8
c-52.2,0-90.9,37.9-90.9,93.8c0,56.5,38.6,93.8,90.9,93.8C785.2,505.1,821.7,467.9,821.7,411.4z"></path><path d="M1178.6,250.3v61.6c0,8.6-5,10.7-14.3,8.6c-7.9-2.1-15.7-3.6-25.8-3.6c-48.7,0-74.4,33.6-74.4,83.7V576
c0,6.4-4.3,10.7-10.7,10.7h-77.3c-6.4,0-10.7-4.3-10.7-10.7V246.8c0-6.4,4.3-10.7,10.7-10.7h74.4c6.4,0,10.7,2.9,10.7,11.5l2.9,45.1
c12.2-37.2,34.4-65.1,75.9-65.1c16.5,0,26.5,4.3,32.2,8.6C1177.2,239.6,1178.6,243.9,1178.6,250.3z"></path><path d="M1221.9,576V85.7c0-6.4,4.3-10.7,10.7-10.7h78c6.4,0,10.7,4.3,10.7,10.7V576c0,6.4-4.3,10.7-10.7,10.7h-78
C1226.2,586.7,1221.9,582.4,1221.9,576z"></path><path d="M1729.5,246.8V576c0,6.4-5,10.7-11.5,10.7h-69.4c-6.4,0-10.7-4.3-10.7-10.7l-1.4-38.6
c-24.3,35.8-61.6,58-114.5,58c-98.8,0-166.8-79.4-166.8-183.9c0-103.8,68-183.9,166.8-183.9c53,0,90.9,22.2,114.5,58l1.4-38.6
c0-6.4,4.3-10.7,10.7-10.7h70.1C1725.2,236,1729.5,240.3,1729.5,246.8z M1631.5,411.4c0-56.5-36.5-93.8-88.8-93.8
s-90.9,37.9-90.9,93.8c0,56.5,38.6,93.8,90.9,93.8S1631.5,467.9,1631.5,411.4z"></path><path d="M1780.4,538.6c0-31.3,25.7-57,57-57c30.7,0,56.4,25.7,56.4,57c0,31.3-25.7,57-56.4,57
C1806.1,595.6,1780.4,569.9,1780.4,538.6z"></path></svg>