<svg xmlns="http://www.w3.org/2000/svg" width="119" height="34" viewBox="0 0 119 34"><path fill="#A08EEE" d="M33.708.24l-7.96 7.962 2.72 2.72 8.516 8.516 7.96-7.96z"/><path fill="#00D4A8" d="M19.798 19.592l8.515 8.515 8.67-8.67-8.515-8.515z"/><path fill="#FF6C47" d="M11.128 10.922l-5.84 5.842L22.47 33.95l5.843-5.843-8.515-8.515z"/><path fill="#FFCE3D" d="M25.748 8.202l-3.276 3.276L11.236.24 0 11.48l5.287 5.286 5.84-5.842 8.67 8.67 8.67-8.67z"/><path d="M56.25 29.928h4.773V3.86H56.25zm25.336-17.806V29.93h-4.59v-1.434c-1.396 1.248-3.084 1.8-4.81 1.8a7.802 7.802 0 0 1-6.06-2.864c-1.14-1.395-1.8-3.23-1.8-5.875v-9.435H69.1v9.62c0 1.613.332 2.423.883 3.046.732.81 1.763 1.103 2.68 1.103 2.022 0 3.486-1.356 4.148-2.2V12.122h4.776zm4.587 12.372c1.21 1.102 3.084 1.763 4.884 1.763 1.284 0 2.275-.625 2.275-1.505 0-2.682-8.628-1.727-8.628-7.453 0-3.417 3.305-5.546 6.83-5.546 2.31 0 4.847.88 6.02 1.8l-2.24 3.45c-.918-.66-2.13-1.21-3.414-1.21-1.32 0-2.424.513-2.424 1.43 0 2.313 8.63 1.397 8.63 7.563 0 3.416-3.343 5.508-7.087 5.508-2.46 0-5.067-.844-7.16-2.385l2.313-3.416zm23.057-4.369l9.803 9.803h-6.426l-7.527-7.71v7.71h-4.77V3.86h4.77v14.025l6.133-5.764h6.72z"/></svg>