<?xml version="1.0" encoding="UTF-8" standalone="no"?>
<!DOCTYPE svg PUBLIC "-//W3C//DTD SVG 1.1//EN" "http://www.w3.org/Graphics/SVG/1.1/DTD/svg11.dtd">
<svg width="100%" height="100%" viewBox="0 0 130 42" version="1.1" xmlns="http://www.w3.org/2000/svg" xmlns:xlink="http://www.w3.org/1999/xlink" xml:space="preserve" xmlns:serif="http://www.serif.com/" style="fill-rule:evenodd;clip-rule:evenodd;stroke-linejoin:round;stroke-miterlimit:2;">
    <g id="Page-1">
        <g id="_1.0.0.0-Home---1920px" serif:id="1.0.0.0-Home---1920px">
            <g id="logo_ninjaconcept_horizontal">
                <g>
                    <g id="Ninja-Concept" transform="matrix(1,0,0,1,64.9426,8.57143)">
                        <path id="Shape" d="M60.67,28.172L62.048,28.172L62.048,22.118L64.065,22.118L64.065,20.933L58.653,20.933L58.653,22.118L60.67,22.118L60.67,28.172ZM53.287,22.983L53.287,23.756C53.287,24.347 53.055,24.621 52.276,24.621L50.901,24.621L50.901,22.118L52.276,22.118C53.055,22.118 53.287,22.389 53.287,22.983ZM49.571,28.172L50.901,28.172L50.901,25.803L52.323,25.803C53.973,25.803 54.661,25.121 54.661,23.891L54.661,22.891C54.661,21.615 54.021,20.932 52.368,20.932L49.571,20.932L49.571,28.172ZM39.893,28.172L44.297,28.172L44.297,26.941L41.223,26.941L41.223,25.077L44.065,25.077L44.065,23.891L41.223,23.891L41.223,22.118L44.297,22.118L44.297,20.933L39.893,20.933L39.893,28.172ZM30.397,26.167C30.397,27.488 31.176,28.262 32.966,28.262C33.654,28.262 34.344,28.172 34.94,28.035L34.8,26.85C34.204,26.941 33.516,27.033 33.013,27.033C32.095,27.033 31.774,26.715 31.774,25.941L31.774,23.165C31.774,22.389 32.095,22.07 33.013,22.07C33.516,22.07 34.204,22.118 34.8,22.253L34.94,21.071C34.344,20.933 33.654,20.842 32.966,20.842C31.177,20.842 30.397,21.615 30.397,22.937L30.397,26.167ZM23.7,28.172L25.534,28.172L25.534,20.933L24.206,20.933L24.206,26.442L21.454,20.933L19.663,20.933L19.663,28.172L20.994,28.172L20.994,22.662L23.7,28.172ZM10.674,23.119C10.674,22.435 11.041,22.026 12.049,22.026C13.059,22.026 13.426,22.435 13.426,23.119L13.426,25.985C13.426,26.671 13.059,27.079 12.049,27.079C11.041,27.079 10.674,26.671 10.674,25.985L10.674,23.119ZM14.757,23.074C14.757,21.844 14.068,20.842 12.049,20.842C9.988,20.842 9.299,21.844 9.299,23.074L9.299,26.033C9.299,27.261 9.988,28.262 12.049,28.262C14.068,28.262 14.757,27.261 14.757,26.033L14.757,23.074ZM0.214,26.167C0.214,27.488 0.996,28.262 2.784,28.262C3.473,28.262 4.161,28.172 4.756,28.035L4.619,26.85C4.023,26.941 3.334,27.033 2.83,27.033C1.912,27.033 1.593,26.715 1.593,25.941L1.593,23.165C1.593,22.389 1.912,22.07 2.83,22.07C3.335,22.07 4.023,22.118 4.619,22.253L4.756,21.071C4.161,20.933 3.473,20.842 2.784,20.842C0.996,20.842 0.214,21.615 0.214,22.937L0.214,26.167Z" style="fill:rgb(42,42,42);"/>
                        <path id="Shape1" serif:id="Shape" d="M46.807,0L42.275,0L42.275,15.161L41.567,15.425L44.51,18.112L46.189,16.359C46.776,15.718 46.807,15.601 46.807,14.987L46.807,0Z" style="fill:rgb(42,42,42);"/>
                        <path id="Shape2" serif:id="Shape" d="M15.862,15.224L15.862,7.542C15.862,6.314 16.274,5.847 12.772,2.721C9.506,-0.228 8.858,0.004 7.651,0.004L0.147,0.004L0.147,15.224L0,15.43L4.797,15.43L4.678,15.224L4.678,4.562L6.297,4.562L5.973,4.533L6.414,4.533C7.15,4.533 8.063,4.738 9.74,6.286C10.977,7.454 11.329,7.951 11.329,8.826L11.329,15.224L11.182,15.429L15.979,15.429L15.862,15.224Z" style="fill:rgb(42,42,42);"/>
                        <path id="Shape3" serif:id="Shape" d="M40.289,15.224L40.289,7.542C40.289,6.314 40.7,5.847 37.198,2.721C33.902,-0.228 33.284,0.004 32.048,0.004L24.544,0.004L24.544,15.224L24.426,15.43L29.194,15.43L29.105,15.224L29.105,4.562L30.694,4.562L30.4,4.533L30.812,4.533C31.578,4.533 32.49,4.738 34.138,6.286C35.373,7.454 35.727,7.951 35.727,8.826L35.727,15.224L35.609,15.429L40.377,15.429L40.289,15.224Z" style="fill:rgb(42,42,42);"/>
                        <path id="Shape4" serif:id="Shape" d="M59.351,8.823L53.348,8.823L53.348,7.303L55.29,4.558L57.379,4.558L59.351,7.303L59.351,8.823ZM63.914,15.22L63.914,6.545C63.914,5.99 63.442,5.435 62.912,4.646C62.383,3.886 60.352,1.14 59.969,0.672C59.617,0.265 58.586,0.031 58.145,0.031L58.145,0L54.555,0L54.555,0.031C54.113,0.031 53.083,0.235 52.701,0.672C52.317,1.14 50.317,3.886 49.787,4.646C49.228,5.435 48.786,5.99 48.786,6.545L48.786,15.22L48.638,15.426L53.436,15.426L53.348,15.25L53.348,13.352L59.352,13.352L59.352,15.22L59.234,15.426L64.002,15.426L63.914,15.22Z" style="fill:rgb(42,42,42);"/>
                        <path id="Shape5" serif:id="Shape" d="M22.249,15.22L22.249,0L17.688,0L17.688,15.25L17.57,15.425L22.366,15.425L22.249,15.22Z" style="fill:rgb(42,42,42);"/>
                    </g>
                    <g id="NInja">
                        <path id="Fill-1" d="M22.218,39.579L22.218,39.14C26.23,39.103 25.684,34.519 28.133,34.519C30.843,34.519 29.71,38.88 34.15,39.14C34.162,39.181 34.239,39.404 34.239,39.579L22.218,39.579ZM14.028,21.171C16.771,19.799 20.612,19.187 28.229,19.3C35.81,19.3 39.9,19.799 42.428,21.083C38.237,23.933 32.683,25.265 28.222,25.265C23.762,25.265 18.22,24.021 14.028,21.171ZM38.384,27.654C38.12,27.771 37.967,27.839 37.967,27.839C37.787,27.926 37.608,28.014 37.428,28.014C37.145,28.014 36.869,27.487 36.695,27.486C36.597,27.485 36.425,27.663 36.334,27.75C36.515,27.926 36.695,28.114 36.785,28.291C35.961,28.642 34.42,29.358 34.239,29.358C33.969,29.358 33.146,28.819 32.683,28.555C40.976,26.507 45.617,20.191 45.617,14.503C45.617,4.81 35.602,0 28.222,0C21.486,0 12.285,3.463 10.84,13.085C10.653,14.333 10.704,15.945 10.885,16.125C10.474,15.718 9.477,15.118 8.564,15.118C7.022,15.118 5.646,16.637 3.834,16.637C2.741,16.637 1.194,16.082 0.003,15.118C-0.059,16.192 1.005,18.232 1.186,18.421C1.468,18.772 2.651,19.037 3.011,19.037C5.929,19.037 6.649,16.726 9.015,16.726C9.657,16.726 10.751,16.99 11.29,17.969L10.84,17.969C8.745,17.969 8.385,19.488 6.199,19.488C5.929,19.488 5.556,19.488 5.286,19.388C5.467,19.752 6.199,20.819 6.649,20.819C8.294,20.819 9.387,18.232 11.381,18.421C11.574,18.685 11.663,18.949 11.753,19.3C13.207,23.658 19.538,27.756 23.798,28.431C23.966,28.457 20.231,30.503 20.231,30.503C20.381,30.727 20.622,31.005 20.766,31.129C18.85,32.384 18.704,34.388 18.683,35.7C18.498,35.871 16.664,36.114 16.664,37.005C16.664,37.356 16.929,37.782 17.365,37.786C17.544,37.788 18.883,37.143 19.153,37.143C19.311,37.35 19.684,37.996 20.585,38.687C20.585,38.876 20.213,39.579 20.033,39.855C18.94,40.031 16.382,40.305 16.485,40.823C16.587,41.34 18.498,41.45 19.12,41.45C19.742,41.45 23.458,40.96 25.317,40.923C27.176,40.885 28.572,40.846 31.05,40.923C33.53,41 36.464,41.45 37.247,41.45C38.03,41.45 39.864,41.242 39.884,40.734C39.904,40.226 37.517,39.943 36.334,39.855C36.154,39.491 35.812,38.902 35.792,38.735C36.304,38.455 36.897,38.183 37.428,36.653C37.587,36.194 37.664,35.844 37.697,35.222C37.697,33.627 37.145,32.56 35.602,31.041C35.782,30.865 36.041,30.619 36.143,30.443C36.064,30.379 35.961,30.337 35.872,30.25C36.334,29.973 37.055,29.622 37.338,29.622C37.517,29.622 37.517,29.709 37.517,29.709L37.517,30.25C37.719,30.214 37.873,30.185 37.967,30.149C37.967,29.797 37.967,29.534 38.058,29.27C40.797,28.114 43.521,26.859 46.157,25.704C46.71,25.44 47.443,25.176 47.983,24.913C48.895,24.549 50.721,23.658 50.721,23.658C50.721,23.658 50.3,22.411 50.078,22.502C49.987,22.54 38.384,27.654 38.384,27.654Z" style="fill:rgb(42,42,42);"/>
                        <path id="Fill-4" d="M30.544,23.97C30.602,23.986 30.722,23.981 30.78,23.933C32.273,22.698 34.239,22.238 35.962,21.611C36.134,21.564 36.212,21.383 36.13,21.29C36.05,21.195 35.692,21.258 35.692,21.258C35.692,21.258 30.317,22.32 30.317,23.658C30.317,23.787 30.342,23.922 30.544,23.97" style="fill:rgb(42,42,42);"/>
                        <path id="Fill-6" d="M20.607,21.259C20.607,21.259 20.249,21.195 20.168,21.289C20.087,21.383 20.164,21.564 20.336,21.61C22.059,22.239 24.025,22.698 25.518,23.933C25.576,23.981 25.696,23.986 25.754,23.97C25.957,23.922 25.981,23.787 25.981,23.658C25.981,22.32 20.607,21.259 20.607,21.259" style="fill:rgb(42,42,42);"/>
                    </g>
                </g>
            </g>
        </g>
    </g>
</svg>
